# Blender v3.2.1 OBJ File: 'simple_cube.blend'
# www.blender.org
mtllib simple_cube.mtl
o Cube
v 0.652153 0.652153 -1.000000
v 0.652153 1.000000 -0.652153
v 1.000000 0.652153 -0.652153
v 0.652153 -1.000000 -0.652153
v 0.652153 -0.652153 -1.000000
v 1.000000 -0.652153 -0.652153
v 1.000000 0.652153 0.652153
v 0.652153 1.000000 0.652153
v 0.652153 0.652153 1.000000
v 1.000000 -0.652153 0.652153
v 0.652153 -0.652153 1.000000
v 0.652153 -1.000000 0.652153
v -0.652153 0.652153 -1.000000
v -1.000000 0.652153 -0.652153
v -0.652153 1.000000 -0.652153
v -1.000000 -0.652153 -0.652153
v -0.652153 -0.652153 -1.000000
v -0.652153 -1.000000 -0.652153
v -1.000000 0.652153 0.652153
v -0.652153 0.652153 1.000000
v -0.652153 1.000000 0.652153
v -0.652153 -1.000000 0.652153
v -0.652153 -0.652153 1.000000
v -1.000000 -0.652153 0.652153
vt 0.536926 0.897325
vt 0.317164 0.897535
vt 0.316954 0.677773
vt 0.536716 0.677563
vt 0.391472 0.575822
vt 0.391200 0.356060
vt 0.610961 0.355788
vt 0.611234 0.575550
vt 0.088825 0.576197
vt 0.088553 0.356435
vt 0.308314 0.356163
vt 0.308586 0.575925
vt 0.389736 0.019953
vt 0.609498 0.020382
vt 0.609069 0.240144
vt 0.389307 0.239715
vt 0.234279 0.897614
vt 0.014517 0.897824
vt 0.014307 0.678062
vt 0.234069 0.677852
vt 0.694119 0.575447
vt 0.693847 0.355685
vt 0.913609 0.355413
vt 0.913881 0.575175
vt 0.913506 0.272528
vt 0.985338 0.313882
vt 0.317243 0.980420
vt 0.245423 0.939046
vt 0.016721 0.315081
vt 0.088450 0.273550
vt 0.245133 0.636399
vt 0.316874 0.594888
vt 0.622015 0.314332
vt 0.693744 0.272800
vt 0.608746 0.938699
vt 0.537005 0.980210
vt 0.380044 0.314631
vt 0.308212 0.273278
vt 0.536637 0.594678
vt 0.608457 0.636052
vt 0.619601 0.677483
vt 0.619811 0.897246
vt 0.996494 0.355311
vt 0.996766 0.575073
vt 0.005939 0.576299
vt 0.005668 0.356537
vt 0.306422 0.239553
vt 0.306851 0.019791
vt 0.692383 0.020544
vt 0.691953 0.240306
vn 0.0000 -1.0000 0.0000
vn -1.0000 0.0000 0.0000
vn 0.0000 0.0000 1.0000
vn 0.0000 1.0000 0.0000
vn 1.0000 0.0000 0.0000
vn 0.0000 0.0000 -1.0000
vn 0.5774 0.5774 -0.5774
vn 0.5774 -0.5774 -0.5774
vn 0.5774 0.5774 0.5774
vn 0.5774 -0.5774 0.5774
vn -0.5774 0.5774 -0.5774
vn -0.5774 -0.5774 -0.5774
vn -0.5774 0.5774 0.5774
vn -0.5774 -0.5774 0.5774
vn -0.7071 -0.7071 0.0000
vn 0.0000 -0.7071 -0.7071
vn 0.7071 0.0000 -0.7071
vn -0.7071 0.0000 0.7071
vn 0.7071 0.0000 0.7071
vn -0.7071 0.0000 -0.7071
vn 0.0000 0.7071 0.7071
vn 0.7071 0.7071 0.0000
vn 0.0000 -0.7071 0.7071
vn -0.7071 0.7071 0.0000
vn 0.0000 0.7071 -0.7071
vn 0.7071 -0.7071 0.0000
usemtl Material
s off
f 18/1/1 4/2/1 12/3/1 22/4/1
f 24/5/2 19/6/2 14/7/2 16/8/2
f 11/9/3 9/10/3 20/11/3 23/12/3
f 2/13/4 15/14/4 21/15/4 8/16/4
f 6/17/5 3/18/5 7/19/5 10/20/5
f 17/21/6 13/22/6 1/23/6 5/24/6
usemtl Material2
f 1/23/7 2/25/7 3/26/7
f 4/2/8 5/27/8 6/28/8
f 7/29/9 8/30/9 9/10/9
f 10/31/10 11/32/10 12/3/10
f 13/22/11 14/33/11 15/34/11
f 16/35/12 17/36/12 18/1/12
f 19/37/13 20/11/13 21/38/13
f 22/4/14 23/39/14 24/40/14
f 18/1/15 22/4/15 24/41/15 16/42/15
f 4/2/16 18/1/16 17/36/16 5/27/16
f 3/43/17 6/44/17 5/24/17 1/23/17
f 23/12/18 20/11/18 19/6/18 24/5/18
f 9/10/19 11/9/19 10/45/19 7/46/19
f 13/22/20 17/21/20 16/8/20 14/7/20
f 8/30/21 21/38/21 20/11/21 9/10/21
f 2/13/22 8/16/22 7/47/22 3/48/22
f 22/4/23 12/3/23 11/32/23 23/39/23
f 21/15/24 15/14/24 14/49/24 19/50/24
f 15/34/25 2/25/25 1/23/25 13/22/25
f 12/3/26 4/2/26 6/17/26 10/20/26
